<svg xmlns="http://www.w3.org/2000/svg" viewBox="0 0 400 400">
  <defs>
    <linearGradient id="honey" x1="0%" y1="0%" x2="100%" y2="100%">
      <stop offset="0%" style="stop-color:#FFD700"/>
      <stop offset="100%" style="stop-color:#FFA500"/>
    </linearGradient>
    <linearGradient id="dark" x1="0%" y1="0%" x2="100%" y2="100%">
      <stop offset="0%" style="stop-color:#2D2D2D"/>
      <stop offset="100%" style="stop-color:#1A1A1A"/>
    </linearGradient>
  </defs>

  <!-- Background circle -->
  <circle cx="200" cy="200" r="190" fill="url(#dark)"/>

  <!-- Honeycomb pattern - center hex -->
  <polygon points="200,120 250,150 250,210 200,240 150,210 150,150" fill="url(#honey)" stroke="#FFD700" stroke-width="2"/>

  <!-- Surrounding hexes (partial, creating honeycomb effect) -->
  <polygon points="200,40 250,70 250,130 200,160 150,130 150,70" fill="url(#honey)" stroke="#FFD700" stroke-width="2" opacity="0.7"/>
  <polygon points="290,80 340,110 340,170 290,200 240,170 240,110" fill="url(#honey)" stroke="#FFD700" stroke-width="2" opacity="0.5"/>
  <polygon points="110,80 160,110 160,170 110,200 60,170 60,110" fill="url(#honey)" stroke="#FFD700" stroke-width="2" opacity="0.5"/>
  <polygon points="290,200 340,230 340,290 290,320 240,290 240,230" fill="url(#honey)" stroke="#FFD700" stroke-width="2" opacity="0.5"/>
  <polygon points="110,200 160,230 160,290 110,320 60,290 60,230" fill="url(#honey)" stroke="#FFD700" stroke-width="2" opacity="0.5"/>
  <polygon points="200,280 250,310 250,370 200,400 150,370 150,310" fill="url(#honey)" stroke="#FFD700" stroke-width="2" opacity="0.7"/>

  <!-- Bee icon in center -->
  <ellipse cx="200" cy="175" rx="25" ry="20" fill="#2D2D2D"/>
  <ellipse cx="200" cy="175" rx="22" ry="17" fill="#FFD700"/>
  <line x1="185" y1="170" x2="215" y2="170" stroke="#2D2D2D" stroke-width="4"/>
  <line x1="183" y1="180" x2="217" y2="180" stroke="#2D2D2D" stroke-width="4"/>

  <!-- Wings -->
  <ellipse cx="175" cy="165" rx="15" ry="10" fill="white" opacity="0.6"/>
  <ellipse cx="225" cy="165" rx="15" ry="10" fill="white" opacity="0.6"/>

  <!-- Antenna -->
  <line x1="190" y1="158" x2="185" y2="148" stroke="#2D2D2D" stroke-width="2"/>
  <line x1="210" y1="158" x2="215" y2="148" stroke="#2D2D2D" stroke-width="2"/>
  <circle cx="185" cy="146" r="3" fill="#2D2D2D"/>
  <circle cx="215" cy="146" r="3" fill="#2D2D2D"/>
</svg>
